<svg width="25" height="24" viewBox="0 0 25 24" fill="none" xmlns="http://www.w3.org/2000/svg">
<path opacity="0.4" d="M20.9002 6.93998C20.9002 7.47998 20.6102 7.96995 20.1502 8.21995L18.4102 9.15995L16.9302 9.94999L13.8602 11.61C13.5302 11.79 13.1702 11.88 12.8002 11.88C12.4302 11.88 12.0702 11.79 11.7402 11.61L5.4502 8.21995C4.9902 7.96995 4.7002 7.47998 4.7002 6.93998C4.7002 6.39998 4.9902 5.90995 5.4502 5.65995L7.4202 4.59996L8.9902 3.74998L11.7402 2.27C12.4002 1.91 13.2002 1.91 13.8602 2.27L20.1502 5.65995C20.6102 5.90995 20.9002 6.39998 20.9002 6.93998Z" fill="#121212"/>
<path opacity="0.4" d="M10.7005 12.79L4.85049 9.86001C4.40049 9.63001 3.8805 9.66001 3.4505 9.92001C3.0205 10.18 2.77051 10.64 2.77051 11.14V16.67C2.77051 17.63 3.30049 18.49 4.16049 18.92L10.0105 21.8401C10.2105 21.9401 10.4305 21.99 10.6505 21.99C10.9105 21.99 11.1705 21.92 11.4005 21.77C11.8305 21.51 12.0805 21.05 12.0805 20.55V15.02C12.0905 14.08 11.5605 13.22 10.7005 12.79Z" fill="#121212"/>
<path opacity="0.4" d="M22.8303 11.15V16.68C22.8303 17.63 22.3003 18.49 21.4403 18.92L15.5903 21.85C15.3903 21.95 15.1703 22 14.9503 22C14.6903 22 14.4303 21.93 14.1903 21.78C13.7703 21.52 13.5103 21.06 13.5103 20.56V15.04C13.5103 14.08 14.0403 13.22 14.9003 12.79L17.0503 11.72L18.5503 10.97L20.7503 9.87C21.2003 9.64 21.7203 9.66 22.1503 9.93C22.5703 10.19 22.8303 10.65 22.8303 11.15Z" fill="#121212"/>
<path d="M18.4104 9.15997L16.9304 9.95001L7.42041 4.59998L8.99042 3.75L18.1704 8.92999C18.2704 8.98999 18.3504 9.06997 18.4104 9.15997Z" fill="#121212"/>
<path d="M18.5503 10.97V13.24C18.5503 13.65 18.2103 13.99 17.8003 13.99C17.3903 13.99 17.0503 13.65 17.0503 13.24V11.72L18.5503 10.97Z" fill="#121212"/>
</svg>
