<svg width="25" height="24" viewBox="0 0 25 24" fill="none" xmlns="http://www.w3.org/2000/svg">
<path opacity="0.4" d="M21.0201 8.7C19.9801 4.07 15.9401 2 12.4001 2C12.4001 2 12.4001 2 12.3901 2C8.86014 2 4.83014 4.07 3.78014 8.69C2.60014 13.85 5.76014 18.22 8.62014 20.98C9.68014 22 11.0401 22.51 12.4001 22.51C13.7601 22.51 15.1201 22 16.1701 20.98C19.0301 18.22 22.1901 13.86 21.0201 8.7Z" fill="#121212"/>
<path d="M11.1498 13.7499C10.9598 13.7499 10.7698 13.6799 10.6198 13.5299L9.11984 12.0299C8.82984 11.7399 8.82984 11.2599 9.11984 10.9699C9.40984 10.6799 9.88984 10.6799 10.1798 10.9699L11.1498 11.9399L14.6198 8.46994C14.9098 8.17994 15.3898 8.17994 15.6798 8.46994C15.9698 8.75994 15.9698 9.23994 15.6798 9.52994L11.6798 13.5299C11.5298 13.6799 11.3398 13.7499 11.1498 13.7499Z" fill="#121212"/>
</svg>
