<svg width="150" height="25" viewBox="0 0 150 25" fill="none" xmlns="http://www.w3.org/2000/svg">
<path d="M0 3.125C0 1.39911 1.39911 0 3.125 0C15.2062 0 25 9.79377 25 21.875C25 23.6009 23.6009 25 21.875 25H5C2.23858 25 0 22.7614 0 20V3.125Z" fill="#8861F3"/>
<path d="M40.032 20.288C38.912 20.288 37.912 20.016 37.032 19.472C36.152 18.928 35.456 18.184 34.944 17.24C34.432 16.296 34.176 15.224 34.176 14.024C34.176 12.824 34.432 11.76 34.944 10.832C35.456 9.888 36.152 9.152 37.032 8.624C37.912 8.08 38.912 7.808 40.032 7.808C40.928 7.808 41.712 7.976 42.384 8.312C43.056 8.648 43.6 9.12 44.016 9.728V2.72H47.088V20H44.352L44.016 18.296C43.632 18.824 43.12 19.288 42.48 19.688C41.856 20.088 41.04 20.288 40.032 20.288ZM40.68 17.6C41.672 17.6 42.48 17.272 43.104 16.616C43.744 15.944 44.064 15.088 44.064 14.048C44.064 13.008 43.744 12.16 43.104 11.504C42.48 10.832 41.672 10.496 40.68 10.496C39.704 10.496 38.896 10.824 38.256 11.48C37.616 12.136 37.296 12.984 37.296 14.024C37.296 15.064 37.616 15.92 38.256 16.592C38.896 17.264 39.704 17.6 40.68 17.6ZM56.0003 20.288C54.8003 20.288 53.7363 20.032 52.8083 19.52C51.8803 19.008 51.1523 18.288 50.6243 17.36C50.0963 16.432 49.8323 15.36 49.8323 14.144C49.8323 12.912 50.0883 11.816 50.6003 10.856C51.1283 9.896 51.8483 9.152 52.7603 8.624C53.6883 8.08 54.7763 7.808 56.0243 7.808C57.1923 7.808 58.2243 8.064 59.1203 8.576C60.0163 9.088 60.7123 9.792 61.2083 10.688C61.7203 11.568 61.9763 12.552 61.9763 13.64C61.9763 13.816 61.9683 14 61.9523 14.192C61.9523 14.384 61.9443 14.584 61.9283 14.792H52.8803C52.9443 15.72 53.2643 16.448 53.8403 16.976C54.4323 17.504 55.1443 17.768 55.9763 17.768C56.6003 17.768 57.1203 17.632 57.5363 17.36C57.9683 17.072 58.2883 16.704 58.4963 16.256H61.6163C61.3923 17.008 61.0163 17.696 60.4883 18.32C59.9763 18.928 59.3363 19.408 58.5683 19.76C57.8163 20.112 56.9603 20.288 56.0003 20.288ZM56.0243 10.304C55.2723 10.304 54.6083 10.52 54.0323 10.952C53.4563 11.368 53.0883 12.008 52.9283 12.872H58.8563C58.8083 12.088 58.5203 11.464 57.9923 11C57.4643 10.536 56.8083 10.304 56.0243 10.304ZM69.6531 20C68.4051 20 67.4051 19.696 66.6531 19.088C65.9011 18.48 65.5251 17.4 65.5251 15.848V10.664H63.4851V8.096H65.5251L65.8851 4.904H68.5971V8.096H71.8131V10.664H68.5971V15.872C68.5971 16.448 68.7171 16.848 68.9571 17.072C69.2131 17.28 69.6451 17.384 70.2531 17.384H71.7411V20H69.6531ZM74.4506 20V8.096H77.1626L77.4266 9.704C77.8106 9.128 78.3146 8.672 78.9386 8.336C79.5786 7.984 80.3146 7.808 81.1466 7.808C82.9866 7.808 84.2906 8.52 85.0586 9.944C85.4906 9.288 86.0666 8.768 86.7866 8.384C87.5226 8 88.3226 7.808 89.1866 7.808C90.7386 7.808 91.9306 8.272 92.7626 9.2C93.5946 10.128 94.0106 11.488 94.0106 13.28V20H90.9386V13.568C90.9386 12.544 90.7386 11.76 90.3386 11.216C89.9546 10.672 89.3546 10.4 88.5386 10.4C87.7066 10.4 87.0346 10.704 86.5226 11.312C86.0266 11.92 85.7786 12.768 85.7786 13.856V20H82.7066V13.568C82.7066 12.544 82.5066 11.76 82.1066 11.216C81.7066 10.672 81.0906 10.4 80.2586 10.4C79.4426 10.4 78.7786 10.704 78.2666 11.312C77.7706 11.92 77.5226 12.768 77.5226 13.856V20H74.4506ZM102.639 20.288C101.487 20.288 100.447 20.024 99.5192 19.496C98.6072 18.968 97.8792 18.24 97.3352 17.312C96.8072 16.368 96.5432 15.28 96.5432 14.048C96.5432 12.816 96.8152 11.736 97.3592 10.808C97.9032 9.864 98.6312 9.128 99.5432 8.6C100.471 8.072 101.511 7.808 102.663 7.808C103.799 7.808 104.823 8.072 105.735 8.6C106.663 9.128 107.391 9.864 107.919 10.808C108.463 11.736 108.735 12.816 108.735 14.048C108.735 15.28 108.463 16.368 107.919 17.312C107.391 18.24 106.663 18.968 105.735 19.496C104.807 20.024 103.775 20.288 102.639 20.288ZM102.639 17.624C103.439 17.624 104.135 17.328 104.727 16.736C105.319 16.128 105.615 15.232 105.615 14.048C105.615 12.864 105.319 11.976 104.727 11.384C104.135 10.776 103.447 10.472 102.663 10.472C101.847 10.472 101.143 10.776 100.551 11.384C99.9752 11.976 99.6872 12.864 99.6872 14.048C99.6872 15.232 99.9752 16.128 100.551 16.736C101.143 17.328 101.839 17.624 102.639 17.624Z" fill="#121212"/>
</svg>
