<svg width="25" height="24" viewBox="0 0 25 24" fill="none" xmlns="http://www.w3.org/2000/svg">
<path opacity="0.4" d="M8.87019 14H4.2002C3.1002 14 2.2002 14.9 2.2002 16V22H8.87019V14Z" fill="#121212"/>
<path d="M13.5304 10H10.8604C9.76035 10 8.86035 10.9 8.86035 12V22H15.5304V12C15.5304 10.9 14.6404 10 13.5304 10Z" fill="#121212"/>
<path opacity="0.4" d="M20.2003 17H15.5303V22H22.2003V19C22.2003 17.9 21.3003 17 20.2003 17Z" fill="#121212"/>
<path d="M15.2104 4.84999C15.5204 4.53999 15.6404 4.16999 15.5404 3.84999C15.4404 3.52999 15.1304 3.3 14.6904 3.23L13.7304 3.06999C13.6904 3.05999 13.6004 2.99998 13.5804 2.95998L13.0504 1.89998C12.6504 1.08998 11.7404 1.08998 11.3404 1.89998L10.8104 2.95998C10.7904 2.99998 10.7004 3.05999 10.6604 3.06999L9.70037 3.23C9.26037 3.3 8.96037 3.52999 8.85037 3.84999C8.75037 4.16999 8.87037 4.53999 9.18037 4.84999L9.92037 5.59999C9.95037 5.62999 9.99037 5.75 9.98037 5.79L9.77037 6.70998C9.61037 7.38998 9.87037 7.69997 10.0404 7.82997C10.2104 7.94997 10.5804 8.10999 11.1904 7.74999L12.0904 7.21999C12.1304 7.18999 12.2604 7.18999 12.3004 7.21999L13.2004 7.74999C13.4804 7.91999 13.7104 7.96999 13.8904 7.96999C14.1004 7.96999 14.2504 7.88997 14.3404 7.82997C14.5104 7.70997 14.7704 7.39998 14.6104 6.70998L14.4004 5.79C14.3904 5.74 14.4204 5.62999 14.4604 5.59999L15.2104 4.84999Z" fill="#121212"/>
</svg>
