<svg width="25" height="24" viewBox="0 0 25 24" fill="none" xmlns="http://www.w3.org/2000/svg">
<path d="M22.6003 10.9699V13.03C22.6003 13.58 22.1603 14.0299 21.6003 14.0499H19.6403C18.5603 14.0499 17.5703 13.2599 17.4803 12.1799C17.4203 11.5499 17.6603 10.9599 18.0803 10.5499C18.4503 10.1699 18.9603 9.94995 19.5203 9.94995H21.6003C22.1603 9.96995 22.6003 10.4199 22.6003 10.9699Z" fill="#121212"/>
<path opacity="0.4" d="M18.0801 10.55C17.6601 10.96 17.4201 11.55 17.4801 12.18C17.5701 13.26 18.5601 14.05 19.6401 14.05H21.6001V15.5C21.6001 18.5 19.6001 20.5 16.6001 20.5H7.6001C4.6001 20.5 2.6001 18.5 2.6001 15.5V8.5C2.6001 5.78 4.2401 3.88 6.7901 3.56C7.0501 3.52 7.3201 3.5 7.6001 3.5H16.6001C16.8601 3.5 17.1101 3.50999 17.3501 3.54999C19.9301 3.84999 21.6001 5.76 21.6001 8.5V9.95001H19.5201C18.9601 9.95001 18.4501 10.17 18.0801 10.55Z" fill="#121212"/>
<path d="M13.6001 9.75H7.6001C7.1901 9.75 6.8501 9.41 6.8501 9C6.8501 8.59 7.1901 8.25 7.6001 8.25H13.6001C14.0101 8.25 14.3501 8.59 14.3501 9C14.3501 9.41 14.0101 9.75 13.6001 9.75Z" fill="#121212"/>
</svg>
